<?xml version="1.0" encoding="utf-8"?>
<!-- Generator: Adobe Illustrator 27.7.0, SVG Export Plug-In . SVG Version: 6.00 Build 0)  -->
<svg version="1.1" xmlns="http://www.w3.org/2000/svg" xmlns:xlink="http://www.w3.org/1999/xlink" x="0px" y="0px"
	 viewBox="0 0 222 222" style="enable-background:new 0 0 222 222;" xml:space="preserve">
<style type="text/css">
	.st0{fill:#FFFFFF;}
	.st1{fill:#FFEB19;}
	.st2{fill:#00376E;}
	.st3{display:none;fill:#00376E;}
	.st4{font-family:'GORDIC-Regular';}
	.st5{font-size:36px;}
	.st6{display:none;fill:#00BE00;}
	.st7{display:none;fill:#FFFFFF;}
	.st8{fill:none;stroke:#B9C3D2;stroke-width:2;stroke-miterlimit:10;}
</style>
<g id="podklad">
</g>
<g id="standard">
</g>
<g id="zkratka">
</g>
<g id="index">
</g>
<g id="nová_verze">
</g>
<g id="ramecek">
	<path class="st0" d="M211,221H11c-5.5,0-10-4.5-10-10V11C1,5.5,5.5,1,11,1h200c5.5,0,10,4.5,10,10v200C221,216.5,216.5,221,211,221
		z"/>
	<path class="st1" d="M11,221h200c5.5,0,10-4.5,10-10v-20H1v20C1,216.5,5.5,221,11,221z"/>
	<g>
		<path class="st2" d="M59.3,131h-6.8c-1.4,0-2.5-1.1-3-2.4l-12-34.5c-0.4,4.3-1.4,12.2-1.8,15L33.5,124c-0.8,5.1-2.8,7-6.2,7h-4.2
			c-1.3,0-1.8-1.1-1.5-2.8l8.3-45.8c0.4-2-0.2-4.4-0.2-5.4c0-1.1,0.7-2,2-2h8.8c1.4,0,2.5,1,3,2.4l12.8,37.8l13-37.8
			c0.4-1.3,1.4-2.4,2.8-2.4h6.4c1.4,0,2.6,1,2.8,2.4l8.2,45.2c0.8,4.6,2.4,4.8,2.4,6.7c0,1.1-1,1.7-2,1.7h-8.2c-1.4,0-2.6-1-2.8-2.4
			l-3-19.5c-0.4-2.7-1.6-10.6-2-15l-11.7,34.5C61.9,129.9,60.7,131,59.3,131z"/>
		<path class="st2" d="M141.6,78.9l-26.6,42.6h10.6c4.6,0,7.7-0.3,10.4-0.8c3-0.6,4.5-2.3,5.6-2.3c0.6,0,1.3,0.4,1.3,1.8
			c0,1.4-0.4,5.7-2.2,8.6c-1.4,2.3-6,2.3-15,2.3H99.9c-1.8,0-2.9-2.1-1.8-3.8l26.6-42.6h-8.5c-4.6,0-7.7,0-10.4,0.3
			c-2.2,0.2-3.4,0.8-4.5,0.8c-0.6,0-1.5-0.4-1.4-1.8l0.3-6.7c0.1-1.4,1-2.2,2.4-2.2h37.3C141.6,75,142.7,77.1,141.6,78.9z"/>
		<path class="st2" d="M202.8,129.3c0,1.1-1,1.7-2,1.7h-8.4c-1.4,0-2.5-1.1-3-2.4l-3.5-9.1h-22.4l-1.6,4.5c-1.8,5.1-3.7,7-7,7h-5
			c-1.3,0-1.8-1.2-1.2-2.8L166,82.4c0.8-2,0.8-4.4,0.8-5.4c0-1.1,0.7-2,2-2h9.4c1.4,0,2.4,1.1,3,2.4l18.2,45.2
			C201.1,126.9,202.8,127.4,202.8,129.3z M182.6,110.7l-4.3-11.2c-1.2-3-3-8.4-3.9-10.9c-0.8,2.5-2.6,7.8-3.7,10.9l-4,11.2H182.6z"
			/>
	</g>
	<text transform="matrix(1 0 0 1 163.6958 171.0164)" class="st3 st4 st5">05</text>
	<path class="st6" d="M221,51H101c-5.5,0-10-4.5-10-10V1h120c5.5,0,10,4.5,10,10V51z"/>
	<text transform="matrix(1 0 0 1 100.9126 41.0164)" class="st7 st4 st5">NOVÉ</text>
	<path class="st8" d="M211,221H11c-5.5,0-10-4.5-10-10V11C1,5.5,5.5,1,11,1h200c5.5,0,10,4.5,10,10v200C221,216.5,216.5,221,211,221
		z"/>
</g>
</svg>
